<svg version="1.1" xmlns="http://www.w3.org/2000/svg" xmlns:xlink="http://www.w3.org/1999/xlink" width="32" height="32" viewBox="0 0 32 32">
<path d="m 18.791805,29.1423 c -0.197749,-0.5103 -0.06792,-1.8429 0.195829,-2.0104 0.104702,-0.066 1.838237,-0.1218 3.852302,-0.123 3.626786,0 3.669013,-0.01 4.399633,-0.3813 0.822756,-0.4227 1.355884,-1.0159 1.647988,-1.8337 C 29.128931,24.1181 29.18568,9.4957 28.950117,8.6744 28.703747,7.8153 28.069772,7.0574 27.259991,6.6539 26.511027,6.2807 26.457627,6.276 22.839936,6.2738 c -2.014065,0 -3.760184,-0.064 -3.880266,-0.1404 -0.1496,-0.095 -0.220024,-0.4108 -0.22371,-1.0044 -0.0093,-1.4987 -0.335103,-1.3883 4.095996,-1.3883 3.549364,0 3.967478,0.027 4.813134,0.312 1.643768,0.5537 2.719492,1.5442 3.510646,3.2323 l 0.400891,0.8554 0,8.5009 0,8.501 -0.478632,1.0105 c -0.579256,1.2228 -1.641052,2.3053 -2.837442,2.8925 l -0.859848,0.4221 -4.212954,0.048 -4.212951,0.048 -0.162995,-0.4205 z m -7.164979,-0.4221 c -0.215848,-0.1172 -0.439896,-0.3327 -0.497884,-0.4787 -0.05799,-0.1461 -0.09652,-1.5442 -0.08562,-3.107 0.01089,-1.5628 -0.02391,-2.9554 -0.07735,-3.0946 -0.08854,-0.2308 -0.513385,-0.2533 -4.7905852,-0.2533 l -4.6934293,0 -0.4359474,-0.4358 -0.43594839,-0.436 0,-4.2506 0,-4.2505 0.38610745,-0.4588 0.38610854,-0.4589 4.7432671,0 c 4.0258382,0 4.7559382,-0.033 4.8270172,-0.2182 0.04606,-0.1201 0.08374,-1.516 0.08374,-3.1021 0,-1.5861 0.04474,-3.0005 0.09942,-3.143 0.14748,-0.3843 0.912795,-0.7291 1.387116,-0.6249 0.277446,0.061 2.246524,1.931 6.178429,5.8676 5.641111,5.648 5.771198,5.7916 5.771198,6.3658 0,0.574 -0.130728,0.7187 -5.630038,6.2326 -3.096521,3.1048 -5.811266,5.7411 -6.032767,5.8584 -0.495149,0.2621 -0.681829,0.2602 -1.182834,-0.012 z" fill="#000000"></path>
</svg>